<svg xmlns="http://www.w3.org/2000/svg" xmlns:xlink="http://www.w3.org/1999/xlink" xmlns:fi="http://pattern.flaticon.com/" x="0" y="0" width="300" height="300" viewBox="0 0 350 350"><rect x="0px" y="0px" width="100%" height="100%" opacity="1" fill="#451773"/><defs><g transform="matrix(0.0390625 0 0 0.0390625 80.5 336)" id="L1_159"><path d="m256 512c-25.988281 0-47.132812-21.136719-47.132812-47.117188v-112.5c0-25.980468 21.144531-47.117187 47.132812-47.117187s47.132812 21.136719 47.132812 47.117187v112.5c0 25.980469-21.144531 47.117188-47.132812 47.117188zm0 0" fill="#00ceff"/><path d="m464.867188 303.132812h-112.46875c-25.988282 0-47.132813-21.136718-47.132813-47.117187 0-26.011719 21.144531-47.148437 47.132813-47.148437h112.46875c25.988281 0 47.132812 21.136718 47.132812 47.117187 0 26.011719-21.144531 47.148437-47.132812 47.148437zm0 0" fill="#0092dd"/><path d="m256 206.734375c-25.988281 0-47.132812-21.136719-47.132812-47.117187v-112.5c0-25.980469 21.144531-47.117188 47.132812-47.117188s47.132812 21.136719 47.132812 47.117188v112.5c0 25.980468-21.144531 47.117187-47.132812 47.117187zm0 0" fill="#00ceff"/><path d="m159.601562 303.132812h-112.46875c-25.988281 0-47.132812-21.136718-47.132812-47.117187 0-26.011719 21.144531-47.148437 47.132812-47.148437h112.46875c25.988282 0 47.132813 21.136718 47.132813 47.117187 0 26.011719-21.144531 47.148437-47.132813 47.148437zm0 0" fill="#00ceff"/><g fill="#0092dd"><path d="m256 305.269531v206.730469c25.988281 0 47.128906-21.140625 47.128906-47.121094v-112.5c0-25.980468-21.140625-47.109375-47.128906-47.109375zm0 0"/><path d="m256 0v206.730469c25.988281 0 47.128906-21.128907 47.128906-47.109375v-112.5c0-25.980469-21.140625-47.121094-47.128906-47.121094zm0 0"/></g></g><g transform="matrix(0.078125 0 0 0.078125 143 2)" id="L1_160"><path d="m256 0c-141.160156 0-256 114.839844-256 256s114.839844 256 256 256 256-114.839844 256-256-114.839844-256-256-256zm0 401.671875c-17.449219 0-34.761719-3.152344-50.988281-9.210937l187.449219-187.441407c6.058593 16.21875 9.210937 33.53125 9.210937 50.980469 0 80.320312-65.351563 145.671875-145.671875 145.671875zm0-291.34375c17.449219 0 34.761719 3.152344 50.988281 9.210937l-187.449219 187.441407c-6.058593-16.21875-9.210937-33.53125-9.210937-50.980469 0-80.320312 65.351563-145.671875 145.671875-145.671875zm0 0" fill="#ff3939"/><path d="m306.988281 119.539062-50.988281 50.988282v170.945312l136.460938-136.453125c6.058593 16.21875 9.210937 33.53125 9.210937 50.980469 0 80.320312-65.351563 145.671875-145.671875 145.671875v110.328125c141.160156 0 256-114.839844 256-256s-114.839844-256-256-256v110.328125c17.449219 0 34.761719 3.152344 50.988281 9.210937zm0 0" fill="#b00000"/></g><g transform="matrix(0.169791476431378 0.04549548899147574 -0.04549548899147574 0.169791476431378 -3.8198185609821707 -4.113508924617747)" id="L1_161"><path d="m497 482c-6.355469 0-12.328125-2.472656-16.820312-6.964844l-16.378907-16.382812v-59.117188h9.101563c8.28125 0 15-6.71875 15-15 0-8.285156-6.71875-15-15-15h-9.101563v-59.121094l16.382813-16.382812c4.488281-4.492188 10.460937-6.964844 16.816406-6.964844 8.285156 0 15-6.714844 15-15s-6.714844-15-15-15c-14.371094 0-27.878906 5.597656-38.03125 15.753906l-10.167969 10.167969-10.164062-10.164062c-10.15625-10.160157-23.664063-15.757813-38.035157-15.757813-8.285156 0-15 6.714844-15 15s6.714844 15 15 15c6.355469 0 12.328126 2.472656 16.816407 6.96875l16.382812 16.378906v59.121094h-9.101562c-8.28125 0-15 6.714844-15 15 0 8.28125 6.71875 15 15 15h9.101562v59.117188l-16.382812 16.382812c-4.488281 4.492188-10.460938 6.964844-16.816407 6.964844-8.285156 0-15 6.714844-15 15s6.714844 15 15 15c14.371094 0 27.878907-5.59375 38.03125-15.753906l10.167969-10.167969 10.164063 10.167969c10.15625 10.160156 23.664062 15.753906 38.035156 15.753906 8.285156 0 15-6.714844 15-15s-6.714844-15-15-15zm0 0" fill="#ffdd00"/><path d="m458.964844 496.246094c10.15625 10.160156 23.664062 15.753906 38.035156 15.753906 8.285156 0 15-6.714844 15-15s-6.714844-15-15-15c-6.355469 0-12.328125-2.472656-16.820312-6.964844l-16.378907-16.382812v-59.117188h9.101563c8.28125 0 15-6.71875 15-15 0-8.285156-6.71875-15-15-15h-9.101563v-59.121094l16.382813-16.382812c4.488281-4.492188 10.460937-6.964844 16.816406-6.964844 8.285156 0 15-6.714844 15-15s-6.714844-15-15-15c-14.371094 0-27.878906 5.597656-38.03125 15.753906l-10.167969 10.167969v203.089844zm0 0" fill="#dfb200"/><path d="m15.328125 431.667969c-1.785156 0-3.585937-.316407-5.324219-.976563-5.816406-2.210937-9.667968-7.785156-9.671875-14.011718l-.332031-401.667969c-.00390625-5.679688 3.203125-10.878907 8.285156-13.421875 5.078125-2.546875 11.160156-2 15.710938 1.40625l321.660156 241c4.984375 3.734375 7.144531 10.164062 5.421875 16.148437-1.71875 5.984375-6.960937 10.285157-13.167969 10.804688l-186.820312 15.566406-124.546875 140.117187c-2.902344 3.265626-7.011719 5.035157-11.214844 5.035157zm0 0" fill="#2633d8"/><path d="m351.078125 260.144531c1.722656-5.984375-.4375-12.414062-5.421875-16.148437l-321.660156-241c-4.550782-3.40625-10.632813-3.953125-15.710938-1.40625l142.804688 284.925781 186.820312-15.566406c6.207032-.519531 11.449219-4.816407 13.167969-10.804688zm0 0" fill="#141b73"/></g><g transform="matrix(0.03906247392296791 0 0 0.03906247392296791 252.5 340)" id="L1_162"><path d="m178.316406 375.175781-48.199218-96.402343c-3.703126-7.40625-.699219-16.417969 6.707031-20.121094 7.410156-3.707032 16.421875-.703125 20.125 6.707031l48.199219 96.398437c3.707031 7.410157.703124 16.421876-6.707032 20.125-7.359375 3.683594-16.394531.75-20.125-6.707031zm0 0" fill="#2633d8"/><path d="m205.148438 361.757812-48.199219-96.398437c-3.703125-7.410156-12.714844-10.414063-20.125-6.707031l61.617187 123.230468c7.410156-3.703124 10.414063-12.714843 6.707032-20.125zm0 0" fill="#141b73"/><path d="m0 336.332031v-321.332031c0-5.679688 3.210938-10.875 8.292969-13.414062 5.082031-2.542969 11.164062-1.996094 15.707031 1.414062l257.066406 192.800781c8.90625 6.679688 7.675782 20.433594-2.292968 25.414063l-257.066407 128.535156c-9.960937 4.980469-21.707031-2.277344-21.707031-13.417969zm0 0" fill="#00ceff"/><path d="m278.773438 221.214844c9.96875-4.980469 11.199218-18.734375 2.292968-25.414063l-257.066406-192.800781c-4.542969-3.410156-10.625-3.957031-15.707031-1.414062l141.949219 283.898437zm0 0" fill="#0092dd"/><path d="m384.53125 512c-70.28125 0-127.464844-57.183594-127.464844-127.464844 0-70.285156 57.183594-127.46875 127.464844-127.46875 70.285156 0 127.46875 57.183594 127.46875 127.46875s-57.179688 127.464844-127.46875 127.464844zm0 0" fill="#00e162"/><path d="m512 384.535156c0-70.285156-57.183594-127.46875-127.46875-127.46875v254.933594c70.289062 0 127.46875-57.179688 127.46875-127.464844zm0 0" fill="#00b14c"/><path d="m384.53125 407.578125c-8.28125 0-15-6.71875-15-15 0-8.285156 6.71875-15 15-15 9.449219 0 17.136719-7.6875 17.136719-17.136719 0-9.445312-7.6875-17.132812-17.136719-17.132812-9.445312 0-17.132812 7.6875-17.132812 17.132812 0 8.285156-6.714844 15-15 15-8.28125 0-15-6.714844-15-15 0-25.988281 21.144531-47.132812 47.132812-47.132812 25.992188 0 47.136719 21.144531 47.136719 47.132812 0 25.988282-21.144531 47.136719-47.136719 47.136719zm0 0" fill="#eff6fe"/><path d="m384.53125 425.773438c8.28125 0 15 6.722656 15 15 0 8.273437-6.71875 15-15 15-8.277344 0-15-6.726563-15-15 0-8.277344 6.722656-15 15-15zm0 0" fill="#eff6fe"/><g fill="#d2dce7"><path d="m384.53125 425.773438v30c8.28125 0 15-6.726563 15-15 0-8.277344-6.71875-15-15-15zm0 0"/><path d="m401.667969 360.441406c0 9.449219-7.6875 17.136719-17.132813 17.136719v30c25.988282 0 47.132813-21.148437 47.132813-47.136719 0-25.988281-21.144531-47.132812-47.132813-47.132812v30c9.445313 0 17.132813 7.6875 17.132813 17.132812zm0 0"/></g></g><g transform="matrix(0.07812492549419403 0 0 0.07812492549419403 145.4999999414065 248.5)" id="L1_163"><path d="m111.414062 222.800781c-8.28125 0-15-6.714843-15-15v-96.402343c0-8.28125 6.71875-15 15-15 8.285157 0 15 6.71875 15 15v96.402343c0 8.285157-6.714843 15-15 15zm0 0" fill="#2633d8"/><path d="m111.414062 96.398438v126.402343c8.285157 0 15-6.714843 15-15v-96.402343c0-8.28125-6.714843-15-15-15zm0 0" fill="#141b73"/><path d="m111.414062 289.199219c-8.28125 0-15 6.714843-15 15v96.402343c0 8.28125 6.71875 15 15 15 8.285157 0 15-6.71875 15-15v-96.402343c0-8.285157-6.714843-15-15-15zm0 0" fill="#2633d8"/><path d="m111.414062 415.601562v-126.402343c8.285157 0 15 6.714843 15 15v96.402343c0 8.28125-6.714843 15-15 15zm0 0" fill="#141b73"/><path d="m111.414062 319.199219c-34.847656 0-63.199218-28.351563-63.199218-63.199219s28.351562-63.199219 63.199218-63.199219c34.847657 0 63.203126 28.351563 63.203126 63.199219s-28.351563 63.199219-63.203126 63.199219zm0 0" fill="#00ceff"/><path d="m207.816406 126.398438h-192.800781c-13.335937 0-20.035156-16.175782-10.605469-25.605469l96.398438-96.398438c5.859375-5.859375 15.355468-5.859375 21.214844 0l96.398437 96.398438c9.429687 9.429687 2.730469 25.605469-10.605469 25.605469zm0 0" fill="#00ceff"/><path d="m122.023438 4.394531c-2.929688-2.929687-6.769532-4.394531-10.609376-4.394531v126.398438h96.402344c13.335938 0 20.035156-16.175782 10.605469-25.605469zm0 0" fill="#0092dd"/><path d="m111.414062 192.800781v126.398438c34.851563 0 63.203126-28.351563 63.203126-63.199219s-28.351563-63.199219-63.203126-63.199219zm0 0" fill="#0092dd"/><path d="m218.421875 411.207031-96.398437 96.398438c-5.859376 5.859375-15.355469 5.859375-21.214844 0l-96.398438-96.398438c-9.429687-9.429687-2.730468-25.605469 10.605469-25.605469h192.800781c13.335938 0 20.035156 16.175782 10.605469 25.605469zm0 0" fill="#00ceff"/><path d="m122.023438 507.605469c-2.929688 2.929687-6.769532 4.394531-10.609376 4.394531v-126.398438h96.402344c13.335938 0 20.035156 16.175782 10.605469 25.605469zm0 0" fill="#0092dd"/></g><g transform="matrix(0.078125 0 0 0.078125 218.5 79.50000001953129)" id="L1_164"><path d="m15.328125 431.667969c-1.785156 0-3.589844-.320313-5.324219-.976563-5.816406-2.210937-9.667968-7.785156-9.675781-14.011718l-.328125-401.667969c-.00390625-5.679688 3.203125-10.878907 8.28125-13.421875 5.082031-2.546875 11.164062-2 15.710938 1.40625l321.664062 241c4.984375 3.734375 7.144531 10.164062 5.421875 16.148437-1.71875 5.984375-6.960937 10.285157-13.167969 10.804688l-186.820312 15.566406-124.550782 140.117187c-2.898437 3.265626-7.007812 5.035157-11.210937 5.035157zm0 0" fill="#2633d8"/><path d="m351.078125 260.144531c1.722656-5.984375-.4375-12.414062-5.421875-16.148437l-321.664062-241c-4.546876-3.40625-10.628907-3.953125-15.710938-1.40625l142.808594 284.929687 186.820312-15.570312c6.207032-.519531 11.449219-4.816407 13.167969-10.804688zm0 0" fill="#141b73"/><path d="m497 431.667969h-160.667969c-8.28125 0-15-6.714844-15-15 0-8.285157 6.71875-15 15-15h160.667969c8.285156 0 15 6.714843 15 15 0 8.285156-6.714844 15-15 15zm0 0" fill="#ff3939"/><path d="m497 401.667969h-80.332031v30h80.332031c8.285156 0 15-6.714844 15-15 0-8.285157-6.714844-15-15-15zm0 0" fill="#b00000"/></g><g transform="matrix(0.13671880960464478 0 0 0.13671880960464478 323 146.00000010253916)" id="L1_165"><path d="m70.617188 397.246094-63.710938-49.027344c-3.683594-2.832031-5.84375-7.214844-5.851562-11.859375l-.554688-321.328125c-.011719-5.683594 3.191406-10.886719 8.273438-13.433594 5.078124-2.550781 11.164062-2.007812 15.714843 1.398438l257.0625 192.382812c3.78125 2.832032 6.011719 7.28125 6.011719 12.007813v80.746093c0 5.664063-3.191406 10.84375-8.246094 13.394532l-192.796875 97.226562c-.160156.078125-8.183593 4.429688-15.902343-1.507812zm0 0" fill="#eff6fe"/><path d="m281.550781 195.382812-257.066406-192.390624c-4.550781-3.40625-10.628906-3.949219-15.710937-1.398438l171.808593 349.726562 98.738281-49.789062c5.050782-2.550781 8.238282-7.730469 8.238282-13.402344v-80.746094c.003906-4.722656-2.226563-9.171874-6.007813-12zm0 0" fill="#d2dce7"/><path d="m8.773438 1.597656c-5.082032 2.546875-8.285157 7.75-8.273438 13.433594l.007812 3.527344 94.058594 188.125c0 .003906.003906.011718.007813.019531-8.484375 8.527344-13.742188 20.277344-13.742188 33.230469 0 25.988281 21.144531 47.132812 47.132813 47.132812 25.988281 0 47.132812-21.144531 47.132812-47.132812 0-25.988282-21.144531-47.132813-47.132812-47.132813-2.230469 0-4.417969.167969-6.566406.46875 0-.003906 0-.003906 0-.003906l-94.070313-188.144531-2.839844-2.125c-4.550781-3.40625-10.636719-3.949219-15.714843-1.398438zm119.191406 221.203125c9.445312 0 17.132812 7.683594 17.132812 17.132813 0 9.449218-7.6875 17.132812-17.132812 17.132812-9.449219 0-17.132813-7.683594-17.132813-17.132812 0-9.449219 7.683594-17.132813 17.132813-17.132813zm0 0" fill="#d2dce7"/><path d="m127.964844 192.800781c-2.230469 0-4.421875.167969-6.566406.46875 0-.003906 0-.003906 0-.003906l-94.070313-188.144531-2.839844-2.125c-4.550781-3.40625-10.632812-3.945313-15.710937-1.398438l109.996094 223.902344c2.660156-1.699219 5.808593-2.699219 9.191406-2.699219 9.445312 0 17.132812 7.6875 17.132812 17.132813 0 7.40625-4.734375 13.710937-11.324218 16.097656l13.257812 26.992188c16.511719-7.335938 28.066406-23.882813 28.066406-43.089844 0-25.988282-21.144531-47.132813-47.132812-47.132813zm0 0" fill="#a1aebc"/><path d="m122.578125 503.742188-56.210937-111.636719c-3.722657-7.394531-.75-16.410157 6.644531-20.140625l192.796875-97.226563c3.558594-1.796875 7.691406-2.097656 11.476562-.84375 3.785156 1.257813 6.914063 3.96875 8.695313 7.535157l56.164062 112.464843c3.699219 7.410157.695313 16.414063-6.710937 20.117188l-192.746094 96.398437c-7.410156 3.707032-16.398438.703125-20.109375-6.667968zm0 0" fill="#2633d8"/><path d="m285.980469 281.429688c-1.78125-3.566407-4.910157-6.277344-8.695313-7.535157-3.785156-1.253906-7.917968-.953125-11.476562.84375l-98.453125 49.652344 13.226562 26.925781 55.261719 112.480469.035156.007813 99.554688-49.792969c7.40625-3.703125 10.410156-12.707031 6.710937-20.117188zm0 0" fill="#141b73"/></g><g transform="matrix(0.13206008520245993 -0.03538539318238439 0.03538539318238439 0.13206008520245993 134.13393464529625 149.25125595467708)" id="L1_166"><path d="m178.316406 375.175781-48.199218-96.402343c-3.703126-7.40625-.699219-16.417969 6.707031-20.121094 7.410156-3.707032 16.421875-.703125 20.125 6.707031l48.199219 96.398437c3.707031 7.410157.703124 16.421876-6.707032 20.125-7.359375 3.683594-16.394531.75-20.125-6.707031zm0 0" fill="#2633d8"/><path d="m205.148438 361.757812-48.199219-96.398437c-3.703125-7.410156-12.714844-10.414063-20.125-6.707031l61.617187 123.230468c7.410156-3.703124 10.414063-12.714843 6.707032-20.125zm0 0" fill="#141b73"/><path d="m0 336.332031v-321.332031c0-5.679688 3.210938-10.875 8.292969-13.414062 5.082031-2.542969 11.164062-1.996094 15.707031 1.414062l257.066406 192.800781c8.90625 6.679688 7.675782 20.433594-2.292968 25.414063l-257.066407 128.535156c-9.960937 4.980469-21.707031-2.277344-21.707031-13.417969zm0 0" fill="#00ceff"/><path d="m278.773438 221.214844c9.96875-4.980469 11.199218-18.734375 2.292968-25.414063l-257.066406-192.800781c-4.542969-3.410156-10.625-3.957031-15.707031-1.414062l141.949219 283.898437zm0 0" fill="#0092dd"/><path d="m497 369.535156c-8.285156 0-15 6.714844-15 15 0 53.742188-43.722656 97.464844-97.46875 97.464844-53.742188 0-97.464844-43.722656-97.464844-97.464844 0-53.746094 43.722656-97.46875 97.464844-97.46875h26.988281l-22.59375 22.59375c-5.855469 5.855469-5.855469 15.355469 0 21.214844 5.855469 5.855469 15.355469 5.859375 21.214844 0l48.199219-48.203125c5.859375-5.855469 5.859375-15.355469 0-21.210937l-48.199219-48.199219c-5.859375-5.859375-15.355469-5.859375-21.214844 0-5.855469 5.855469-5.855469 15.355469 0 21.210937l22.59375 22.59375h-26.988281c-70.28125 0-127.464844 57.183594-127.464844 127.46875s57.183594 127.464844 127.464844 127.464844c70.285156 0 127.46875-57.179688 127.46875-127.464844 0-8.285156-6.714844-15-15-15zm0 0" fill="#ff8d2e"/><g fill="#f53c00"><path d="m497 369.535156c-8.285156 0-15 6.714844-15 15 0 53.742188-43.722656 97.464844-97.464844 97.464844v30c70.285156 0 127.464844-57.179688 127.464844-127.464844 0-8.285156-6.714844-15-15-15zm0 0"/><path d="m458.339844 261.460938-48.199219-48.199219c-5.859375-5.859375-15.355469-5.859375-21.214844 0-5.855469 5.855469-5.855469 15.355469 0 21.210937l22.59375 22.59375h-26.984375v30h26.984375l-22.59375 22.59375c-5.855469 5.859375-5.855469 15.355469 0 21.214844 5.855469 5.855469 15.355469 5.859375 21.214844 0l48.199219-48.199219c5.859375-5.859375 5.859375-15.359375 0-21.214843zm0 0"/></g></g><g transform="matrix(0.09765625 0 0 0.09765625 54.5 231.5)" id="L1_167"><path d="m290.863281 221.171875c-5.859375-5.859375-5.859375-15.355469-.003906-21.214844l123.234375-123.261719c5.855469-5.859374 15.351562-5.859374 21.210938-.003906 5.859374 5.859375 5.859374 15.355469.003906 21.214844l-123.230469 123.261719c-5.859375 5.859375-15.355469 5.859375-21.214844.003906zm0 0" fill="#2633d8"/><path d="m221.136719 290.828125c5.859375 5.859375 5.859375 15.355469.003906 21.214844l-123.234375 123.261719c-5.855469 5.859374-15.351562 5.859374-21.210938.003906-5.859374-5.859375-5.859374-15.355469-.003906-21.214844l123.230469-123.261719c5.859375-5.859375 15.355469-5.859375 21.214844-.003906zm0 0" fill="#2633d8"/><path d="m76.695312 435.308594c5.859376 5.855468 15.351563 5.855468 21.210938-.003906l123.234375-123.261719c5.851563-5.855469 5.851563-15.335938.011719-21.195313zm0 0" fill="#141b73"/><path d="m290.863281 221.171875c5.855469 5.855469 15.355469 5.855469 21.214844-.003906l123.230469-123.261719c5.855468-5.859375 5.855468-15.355469 0-21.214844l-144.460938 144.460938c.003906.007812.007813.011718.015625.019531zm0 0" fill="#141b73"/><path d="m256 335.265625c-43.707031 0-79.265625-35.558594-79.265625-79.265625s35.558594-79.265625 79.265625-79.265625 79.265625 35.558594 79.265625 79.265625-35.558594 79.265625-79.265625 79.265625zm0 0" fill="#00ceff"/><path d="m256 335.265625c43.707031 0 79.265625-35.558594 79.265625-79.265625 0-21.855469-8.886719-41.671875-23.242187-56.023438l-112.046876 112.046876c14.351563 14.355468 34.167969 23.242187 56.023438 23.242187zm0 0" fill="#0092dd"/><path d="m486.394531 170.207031-144.601562-144.601562c-9.429688-9.425781-2.730469-25.605469 10.605469-25.605469h144.601562c8.285156 0 15 6.714844 15 15v144.601562c0 13.394532-16.226562 19.988282-25.605469 10.605469zm0 0" fill="#00ceff"/><path d="m486.394531 170.207031c9.378907 9.386719 25.605469 2.789063 25.605469-10.605469v-144.601562c0-4.140625-1.679688-7.890625-4.394531-10.605469l-93.511719 93.511719zm0 0" fill="#0092dd"/><path d="m25.605469 341.792969 144.601562 144.601562c9.429688 9.425781 2.730469 25.605469-10.605469 25.605469h-144.601562c-8.285156 0-15-6.71875-15-15v-144.601562c0-13.394532 16.226562-19.988282 25.605469-10.605469zm0 0" fill="#00ceff"/><path d="m15 512h144.601562c13.335938 0 20.035157-16.179688 10.605469-25.605469l-72.300781-72.300781-93.511719 93.511719c2.714844 2.714843 6.464844 4.394531 10.605469 4.394531zm0 0" fill="#0092dd"/></g><g transform="matrix(0.17578114569187164 0 0 0.17578114569187164 214.5 232.5)" id="L1_168"><path d="m178.316406 375.175781-48.199218-96.402343c-3.703126-7.40625-.699219-16.417969 6.707031-20.121094 7.410156-3.707032 16.421875-.703125 20.125 6.707031l48.199219 96.398437c3.707031 7.410157.703124 16.421876-6.707032 20.125-7.359375 3.683594-16.394531.75-20.125-6.707031zm0 0" fill="#2633d8"/><path d="m205.148438 361.757812-48.199219-96.398437c-3.703125-7.410156-12.714844-10.414063-20.125-6.707031l61.617187 123.230468c7.410156-3.703124 10.414063-12.714843 6.707032-20.125zm0 0" fill="#141b73"/><path d="m0 336.332031v-321.332031c0-5.679688 3.210938-10.875 8.292969-13.414062 5.082031-2.542969 11.164062-1.996094 15.707031 1.414062l257.066406 192.800781c8.90625 6.679688 7.675782 20.433594-2.292968 25.414063l-257.066407 128.535156c-9.960937 4.980469-21.707031-2.277344-21.707031-13.417969zm0 0" fill="#00ceff"/><path d="m278.773438 221.214844c9.96875-4.980469 11.199218-18.734375 2.292968-25.414063l-257.066406-192.800781c-4.542969-3.410156-10.625-3.957031-15.707031-1.414062l141.949219 283.898437zm0 0" fill="#0092dd"/><path d="m384.53125 257.066406c-70.28125 0-127.464844 57.183594-127.464844 127.46875s57.183594 127.464844 127.464844 127.464844c70.285156 0 127.46875-57.179688 127.46875-127.464844s-57.179688-127.46875-127.46875-127.46875zm0 30c21.898438 0 42.128906 7.257813 58.417969 19.496094l-136.390625 136.386719c-12.234375-16.289063-19.492188-36.519531-19.492188-58.414063 0-53.746094 43.722656-97.46875 97.464844-97.46875zm0 194.933594c-21.046875 0-40.554688-6.707031-56.503906-18.09375l135.878906-135.878906c11.386719 15.949218 18.09375 35.460937 18.09375 56.507812 0 53.742188-43.722656 97.464844-97.46875 97.464844zm0 0" fill="#ff3939"/><path d="m508.589844 413.863281v-58.660156c-13.285156-56.191406-63.863282-98.136719-124.054688-98.136719v30c21.894532 0 42.125 7.261719 58.414063 19.496094l-58.414063 58.414062v42.425782l79.371094-79.371094c11.386719 15.945312 18.09375 35.457031 18.09375 56.503906 0 53.742188-43.722656 97.464844-97.464844 97.464844v30c60.191406 0 110.769532-41.941406 124.054688-98.136719zm0 0" fill="#b00000"/></g></defs><g fi:class="KUsePattern"><pattern id="pattern_L1_159" width="350" height="350" patternUnits="userSpaceOnUse"><use xlink:href="#L1_159" x="-350" y="-350"/><use xlink:href="#L1_159" x="0" y="-350"/><use xlink:href="#L1_159" x="350" y="-350"/><use xlink:href="#L1_159" x="-350" y="0"/><use xlink:href="#L1_159" x="0" y="0"/><use xlink:href="#L1_159" x="350" y="0"/><use xlink:href="#L1_159" x="-350" y="350"/><use xlink:href="#L1_159" x="0" y="350"/><use xlink:href="#L1_159" x="350" y="350"/></pattern><rect x="0" y="0" width="100%" height="100%" fill="url(#pattern_L1_159)"/></g><g fi:class="KUsePattern"><pattern id="pattern_L1_160" width="350" height="350" patternUnits="userSpaceOnUse"><use xlink:href="#L1_160" x="-350" y="-350"/><use xlink:href="#L1_160" x="0" y="-350"/><use xlink:href="#L1_160" x="350" y="-350"/><use xlink:href="#L1_160" x="-350" y="0"/><use xlink:href="#L1_160" x="0" y="0"/><use xlink:href="#L1_160" x="350" y="0"/><use xlink:href="#L1_160" x="-350" y="350"/><use xlink:href="#L1_160" x="0" y="350"/><use xlink:href="#L1_160" x="350" y="350"/></pattern><rect x="0" y="0" width="100%" height="100%" fill="url(#pattern_L1_160)"/></g><g fi:class="KUsePattern"><pattern id="pattern_L1_161" width="350" height="350" patternUnits="userSpaceOnUse"><use xlink:href="#L1_161" x="-350" y="-350"/><use xlink:href="#L1_161" x="0" y="-350"/><use xlink:href="#L1_161" x="350" y="-350"/><use xlink:href="#L1_161" x="-350" y="0"/><use xlink:href="#L1_161" x="0" y="0"/><use xlink:href="#L1_161" x="350" y="0"/><use xlink:href="#L1_161" x="-350" y="350"/><use xlink:href="#L1_161" x="0" y="350"/><use xlink:href="#L1_161" x="350" y="350"/></pattern><rect x="0" y="0" width="100%" height="100%" fill="url(#pattern_L1_161)"/></g><g fi:class="KUsePattern"><pattern id="pattern_L1_162" width="350" height="350" patternUnits="userSpaceOnUse"><use xlink:href="#L1_162" x="-350" y="-350"/><use xlink:href="#L1_162" x="0" y="-350"/><use xlink:href="#L1_162" x="350" y="-350"/><use xlink:href="#L1_162" x="-350" y="0"/><use xlink:href="#L1_162" x="0" y="0"/><use xlink:href="#L1_162" x="350" y="0"/><use xlink:href="#L1_162" x="-350" y="350"/><use xlink:href="#L1_162" x="0" y="350"/><use xlink:href="#L1_162" x="350" y="350"/></pattern><rect x="0" y="0" width="100%" height="100%" fill="url(#pattern_L1_162)"/></g><g fi:class="KUsePattern"><pattern id="pattern_L1_163" width="350" height="350" patternUnits="userSpaceOnUse"><use xlink:href="#L1_163" x="-350" y="-350"/><use xlink:href="#L1_163" x="0" y="-350"/><use xlink:href="#L1_163" x="350" y="-350"/><use xlink:href="#L1_163" x="-350" y="0"/><use xlink:href="#L1_163" x="0" y="0"/><use xlink:href="#L1_163" x="350" y="0"/><use xlink:href="#L1_163" x="-350" y="350"/><use xlink:href="#L1_163" x="0" y="350"/><use xlink:href="#L1_163" x="350" y="350"/></pattern><rect x="0" y="0" width="100%" height="100%" fill="url(#pattern_L1_163)"/></g><g fi:class="KUsePattern"><pattern id="pattern_L1_164" width="350" height="350" patternUnits="userSpaceOnUse"><use xlink:href="#L1_164" x="-350" y="-350"/><use xlink:href="#L1_164" x="0" y="-350"/><use xlink:href="#L1_164" x="350" y="-350"/><use xlink:href="#L1_164" x="-350" y="0"/><use xlink:href="#L1_164" x="0" y="0"/><use xlink:href="#L1_164" x="350" y="0"/><use xlink:href="#L1_164" x="-350" y="350"/><use xlink:href="#L1_164" x="0" y="350"/><use xlink:href="#L1_164" x="350" y="350"/></pattern><rect x="0" y="0" width="100%" height="100%" fill="url(#pattern_L1_164)"/></g><g fi:class="KUsePattern"><pattern id="pattern_L1_165" width="350" height="350" patternUnits="userSpaceOnUse"><use xlink:href="#L1_165" x="-350" y="-350"/><use xlink:href="#L1_165" x="0" y="-350"/><use xlink:href="#L1_165" x="350" y="-350"/><use xlink:href="#L1_165" x="-350" y="0"/><use xlink:href="#L1_165" x="0" y="0"/><use xlink:href="#L1_165" x="350" y="0"/><use xlink:href="#L1_165" x="-350" y="350"/><use xlink:href="#L1_165" x="0" y="350"/><use xlink:href="#L1_165" x="350" y="350"/></pattern><rect x="0" y="0" width="100%" height="100%" fill="url(#pattern_L1_165)"/></g><g fi:class="KUsePattern"><pattern id="pattern_L1_166" width="350" height="350" patternUnits="userSpaceOnUse"><use xlink:href="#L1_166" x="-350" y="-350"/><use xlink:href="#L1_166" x="0" y="-350"/><use xlink:href="#L1_166" x="350" y="-350"/><use xlink:href="#L1_166" x="-350" y="0"/><use xlink:href="#L1_166" x="0" y="0"/><use xlink:href="#L1_166" x="350" y="0"/><use xlink:href="#L1_166" x="-350" y="350"/><use xlink:href="#L1_166" x="0" y="350"/><use xlink:href="#L1_166" x="350" y="350"/></pattern><rect x="0" y="0" width="100%" height="100%" fill="url(#pattern_L1_166)"/></g><g fi:class="KUsePattern"><pattern id="pattern_L1_167" width="350" height="350" patternUnits="userSpaceOnUse"><use xlink:href="#L1_167" x="-350" y="-350"/><use xlink:href="#L1_167" x="0" y="-350"/><use xlink:href="#L1_167" x="350" y="-350"/><use xlink:href="#L1_167" x="-350" y="0"/><use xlink:href="#L1_167" x="0" y="0"/><use xlink:href="#L1_167" x="350" y="0"/><use xlink:href="#L1_167" x="-350" y="350"/><use xlink:href="#L1_167" x="0" y="350"/><use xlink:href="#L1_167" x="350" y="350"/></pattern><rect x="0" y="0" width="100%" height="100%" fill="url(#pattern_L1_167)"/></g><g fi:class="KUsePattern"><pattern id="pattern_L1_168" width="350" height="350" patternUnits="userSpaceOnUse"><use xlink:href="#L1_168" x="-350" y="-350"/><use xlink:href="#L1_168" x="0" y="-350"/><use xlink:href="#L1_168" x="350" y="-350"/><use xlink:href="#L1_168" x="-350" y="0"/><use xlink:href="#L1_168" x="0" y="0"/><use xlink:href="#L1_168" x="350" y="0"/><use xlink:href="#L1_168" x="-350" y="350"/><use xlink:href="#L1_168" x="0" y="350"/><use xlink:href="#L1_168" x="350" y="350"/></pattern><rect x="0" y="0" width="100%" height="100%" fill="url(#pattern_L1_168)"/></g></svg>