<svg id="Capa_1" enable-background="new 0 0 512.083 512.083" height="512" viewBox="0 0 512.083 512.083" width="512" xmlns="http://www.w3.org/2000/svg"><g><path d="m512.083 256.042-32.344-44.515 12.911-53.495-46.971-28.68-8.588-54.359-54.359-8.588-28.679-46.972-53.496 12.912-44.515-32.345-135 256.042 135 256.041 44.515-32.345 53.495 12.912 28.679-46.972 54.359-8.588 8.588-54.358 46.972-28.68-12.911-53.495z" fill="#ff5d34"/><path d="m211.527 32.345-53.495-12.912-28.68 46.972-54.359 8.588-8.588 54.358-46.971 28.68 12.912 53.495-32.346 44.516 32.346 44.514-12.912 53.495 46.971 28.68 8.588 54.359 54.358 8.588 28.68 46.972 53.495-12.912 44.516 32.345v-512.083z" fill="#ff7b2d"/><path d="m256.042 91.042-103.382 165 103.382 165c91.127 0 165-73.873 165-165s-73.873-165-165-165z" fill="#ffe7b5"/><path d="m256.042 91.042c-53.98 0-101.9 25.92-132.01 66l-29.69 66c-2.16 10.66-3.3 21.7-3.3 33s1.14 22.34 3.3 33l29.69 66c30.11 40.08 78.03 66 132.01 66v-66l-29.042-33 29.042-33v-66l-29.02-29.333 29.02-36.667z" fill="#cc3245"/><g fill="#ff3e3a"><path d="m256.042 289.042v66h-132.01c-14.41-19.19-24.74-41.62-29.69-66z"/><path d="m256.042 157.042v66h-161.7c4.95-24.38 15.28-46.81 29.69-66z"/></g></g></svg>