<svg enable-background="new 0 0 24 24" height="512" viewBox="0 0 24 24" width="512" xmlns="http://www.w3.org/2000/svg"><g id="color_1_"><path d="m23.192 10.053-1.9-1.9v-2.685c0-1.522-1.238-2.76-2.76-2.76h-2.685l-1.9-1.9c-1.041-1.041-2.854-1.041-3.895 0l-1.9 1.9h-2.684c-1.521 0-2.76 1.238-2.76 2.76v2.685l-1.9 1.9c-.521.52-.808 1.213-.808 1.947s.287 1.427.808 1.947l1.9 1.9v2.685c0 1.521 1.238 2.76 2.76 2.76h2.685l1.9 1.9c.52.521 1.213.808 1.947.808s1.427-.287 1.947-.808l1.9-1.9h2.685c1.521 0 2.76-1.238 2.76-2.76v-2.685l1.9-1.9c.521-.52.808-1.213.808-1.947s-.287-1.427-.808-1.947z" fill="#00bcd4"/><path d="m12 .027c-.713 0-1.427.26-1.947.781l-1.9 1.9h-2.685c-1.521 0-2.76 1.238-2.76 2.76v2.685l-1.9 1.9c-.521.52-.808 1.213-.808 1.947s.287 1.427.808 1.947l1.9 1.9v2.685c0 1.521 1.238 2.76 2.76 2.76h2.685l1.9 1.9c.52.521 1.213.808 1.947.808z" fill="#00a4b9"/><path d="m14.272 16.172c-1.582-.618-3.272-2.038-3.272-4.172s1.69-3.554 3.272-4.172c.286-.111.476-.387.478-.694.002-.308-.185-.585-.47-.699-.715-.289-1.481-.435-2.28-.435-3.477 0-6 2.523-6 6s2.523 6 6 6c.799 0 1.565-.146 2.28-.435.285-.114.472-.392.47-.699s-.191-.583-.478-.694z" fill="#fafafa"/><path d="m11 12h-5c0 3.477 2.523 6 6 6 .799 0 1.565-.146 2.28-.435.285-.114.472-.392.47-.699-.002-.308-.191-.583-.478-.694-1.582-.618-3.272-2.038-3.272-4.172z" fill="#dadada"/></g></svg>